<svg width="520" height="85" viewBox="0 0 520 85" xmlns="http://www.w3.org/2000/svg"><title>v4_dark</title><g fill="none" fill-rule="evenodd"><path d="M205.919 69.211c0-10.766-8.402-13.487-16.211-15.262-7.218-1.656-13.135-2.72-13.135-8.518 0-6.507 6.272-7.335 12.07-7.335 4.023 0 8.874.355 13.134 1.656 1.657.355 2.249.118 2.249-1.538v-2.721c0-1.065-.474-1.538-2.012-2.011-3.55-1.065-8.875-1.538-13.49-1.538-9.111 0-19.05 1.893-19.05 13.842 0 9.938 7.81 12.54 15.619 14.197 6.626 1.42 13.726 2.603 13.726 9.228 0 6.27-5.206 8.4-13.253 8.4-4.496 0-9.111-.473-14.318-2.011-1.775-.355-2.248-.118-2.248 1.656v2.603c0 1.42.473 1.893 2.13 2.248 5.68 1.538 9.94 1.893 15.028 1.893 11.714 0 19.76-3.431 19.76-14.789zm63.508-11.476V2.603c0-2.011-.71-2.603-2.722-2.603h-2.13c-2.13 0-2.721.592-2.721 2.721V42c-3.905-6.27-10.531-10.056-19.643-10.056-15.501 0-25.204 10.884-25.204 26.028 0 15.735 10.295 26.028 25.914 26.028 16.093 0 26.506-10.293 26.506-26.265zm-7.573.237c0 11.24-6.982 19.521-18.815 19.521-11.714 0-18.34-8.282-18.34-19.521 0-11.24 6.507-19.521 18.34-19.521 11.36 0 18.46 7.926 18.815 18.693v.828zm73.33.236c0-15.971-10.414-26.264-26.507-26.264-15.619 0-25.914 10.293-25.914 26.028 0 15.143 9.703 26.028 25.205 26.028 9.11 0 15.737-3.786 19.642-10.056.119 7.217 3.432 9.464 8.52 9.464 2.722 0 3.786-.118 5.443-.71 1.183-.354 1.775-1.064 1.775-2.129v-2.721c0-1.538-.473-1.538-2.13-1.183-.473.236-1.302.473-2.13.473-3.195 0-3.905-2.248-3.905-6.625V58.208zm-7.574-.236c0 11.24-7.1 19.521-18.814 19.521-11.833 0-18.341-8.282-18.341-19.521 0-11.24 6.626-19.521 18.34-19.521 11.834 0 18.815 8.281 18.815 19.52zm112.935-16.564V3.018c0-2.362.592-3.018 2.722-3.018h2.011C447.527 0 448 .656 448 3.018v76.781c0 2.362-.592 3.018-2.722 3.018h-2.011c-2.248 0-2.722-.656-2.722-3.018V41.41zm-16.65 11.713c0-16.682-9.702-21.177-18.695-21.177-7.1 0-13.608 2.957-16.567 10.648-3.194-7.927-9.703-10.648-16.566-10.648-8.993 0-18.696 4.495-18.696 21.177v26.975c0 2.13.474 2.72 2.722 2.72h2.011c2.249 0 2.722-.59 2.722-2.72v-27.33c0-10.884 6.153-14.315 11.951-14.315 5.917 0 12.07 3.43 12.07 14.315v27.33c0 2.13.473 2.72 2.721 2.72h2.012c2.13 0 2.722-.59 2.722-2.72v-27.33c0-10.884 6.271-14.315 12.07-14.315 5.916 0 11.95 3.43 11.95 14.315v27.33c0 2.13.592 2.72 2.722 2.72h2.13c2.13 0 2.722-.59 2.722-2.72V53.12z" fill="#FFF"/><path d="M36.326 34.608h-2.024v28.704c0 12.88-8.28 19.044-17.112 19.044-9.2 0-13.708-5.52-14.628-13.708-.276-2.484-.368-4.6-.368-8.004V34.608H.17v26.864c0 3.956.092 5.428.368 7.912 1.012 9.476 6.9 14.904 16.652 14.904 5.98 0 11.592-2.484 15.18-7.544l1.932-4.784V83h2.024V34.608zm50.205 0h-2.3L66.015 81.252 47.707 34.608h-2.3L64.543 83h2.852L86.53 34.608zm9.633-11.684c-1.012 0-1.84.828-1.84 1.84s.828 1.84 1.84 1.84 1.84-.828 1.84-1.84-.828-1.84-1.84-1.84zM97.176 83V34.608h-2.024V83h2.024zm32.817-49.68c-12.144 0-22.172 9.844-22.172 25.484 0 16.1 9.568 25.484 21.436 25.484 9.936 0 17.756-5.98 19.688-15.732h-2.024c-1.84 8.924-9.108 13.892-17.48 13.892-9.752 0-19.412-7.728-19.412-24.104 0-15.64 10.672-23.184 19.78-23.184 9.844 0 15.916 5.704 17.48 14.444h2.024c-1.38-9.66-8.832-16.284-19.32-16.284z" fill="#4A4A4A"/><g transform="translate(463 34)" fill="#FFF"><rect y="41.86" width="40.714" height="7.326" rx="1.163"/><rect y=".465" width="40.714" height="7.326" rx="1.163"/><rect y="20.93" width="57" height="7.326" rx="1.163"/></g></g></svg>